<?xml version="1.0" encoding="UTF-8" standalone="no"?>
<!-- Created with Inkscape (http://www.inkscape.org/) -->

<svg
   width="670.46057"
   height="616.60638"
   viewBox="0 0 670.46058 616.60638"
   version="1.1"
   id="svg5"
   xml:space="preserve"
   xmlns:xlink="http://www.w3.org/1999/xlink"
   xmlns="http://www.w3.org/2000/svg"
   xmlns:svg="http://www.w3.org/2000/svg"><defs
     id="defs2"><linearGradient
       id="linearGradient1246"><stop
         style="stop-color:#cb85ff;stop-opacity:1;"
         offset="0"
         id="stop1242" /><stop
         style="stop-color:#7275e8;stop-opacity:1;"
         offset="1"
         id="stop1244" /></linearGradient><linearGradient
       xlink:href="#linearGradient1246"
       id="linearGradient1051"
       x1="232.0056"
       y1="-79.782608"
       x2="768.09338"
       y2="-57.543762"
       gradientUnits="userSpaceOnUse" /><clipPath
       clipPathUnits="userSpaceOnUse"
       id="clipPath3807"><path
         id="path3809"
         style="color:#000000;display:none;fill:#ffffff;stroke-width:15.559;stroke-linecap:round;stroke-miterlimit:4.7;stroke-dasharray:none;-inkscape-stroke:none"
         d="m 471.74629,-144.89055 c -11.74494,12.11322 -22.93361,26.15375 -31.89715,42.05904 -31.78018,56.392081 -99.86779,90.327373 -99.86779,90.327373 a 7.7794789,7.7794789 0 0 0 -3.56315,10.4077208 7.7794789,7.7794789 0 0 0 10.40635,3.5645394 c 0,0 71.50543,-34.4246382 106.57839,-96.6595602 32.6189,-57.880343 100.5307,-91.009603 100.5307,-91.009603 a 7.7794789,7.7794789 0 0 0 3.64601,-10.38012 7.7794789,7.7794789 0 0 0 -10.37871,-3.6474 c 0,0 -40.2198,18.99835 -75.45465,55.33801 z m 26.96673,26.96673 c -11.74495,12.11322 -22.93499,26.152376 -31.89853,42.057668 -31.78017,56.392084 -99.86777,90.327377 -99.86778,90.327369 a 7.7794789,7.7794789 0 0 0 -3.56315,10.407721 7.7794789,7.7794789 0 0 0 10.40772,3.565919 c 0,0 71.50406,-34.4260174 106.57701,-96.660939 32.6189,-57.880348 100.5307,-91.009618 100.5307,-91.009618 a 7.7794789,7.7794789 0 0 0 3.64602,-10.3801 7.7794789,7.7794789 0 0 0 -10.37873,-3.64741 c 0,0 -40.21841,18.99973 -75.45326,55.33939 z m 26.96535,26.965351 c -11.74495,12.113213 -22.93498,26.152387 -31.89853,42.057665 -31.78017,56.392084 -99.86778,90.327369 -99.86778,90.327369 a 7.7794789,7.7794789 0 0 0 -3.56315,10.407728 7.7794789,7.7794789 0 0 0 10.40772,3.565911 c 0,0 71.50407,-34.426003 106.57701,-96.660939 32.61891,-57.880339 100.53069,-91.009615 100.53069,-91.009615 a 7.7794789,7.7794789 0 0 0 3.64741,-10.37872 7.7794789,7.7794789 0 0 0 -10.3801,-3.64879 c 0,0 -40.21841,18.99974 -75.45327,55.339391 z m 26.96536,26.965354 c -11.74495,12.113213 -22.93499,26.15238 -31.89854,42.057665 -31.78017,56.392085 -99.8664,90.328748 -99.8664,90.328748 a 7.7794789,7.7794789 0 0 0 -3.56315,10.407721 7.7794789,7.7794789 0 0 0 10.40635,3.56454 c 0,0 71.50405,-34.426017 106.577,-96.660939 32.61891,-57.880339 100.5307,-91.00961 100.5307,-91.00961 a 7.7794789,7.7794789 0 0 0 3.6474,-10.37873 7.7794789,7.7794789 0 0 0 -10.3801,-3.64879 c 0,0 -40.21841,18.99974 -75.45326,55.339395 z m 26.96534,26.965348 C 567.86412,-24.914554 556.67409,-10.875387 547.71055,5.0299049 515.93037,61.421982 447.84414,95.358646 447.84414,95.358646 a 7.7794789,7.7794789 0 0 0 -3.56453,10.406354 7.7794789,7.7794789 0 0 0 10.40911,3.56729 c 0,0 71.50267,-34.427394 106.57562,-96.662323 32.61891,-57.880339 100.5307,-91.009614 100.5307,-91.009614 a 7.7794789,7.7794789 0 0 0 3.6474,-10.378722 7.7794789,7.7794789 0 0 0 -10.3801,-3.648784 c 0,0 -40.21842,18.999726 -75.45327,55.339386 z" /><path
         id="lpe_path-effect3811"
         style="color:#000000;fill:#ffffff;stroke-width:15.559;stroke-linecap:round;stroke-miterlimit:4.7;stroke-dasharray:none;-inkscape-stroke:none"
         class="powerclip"
         d="M 227.0056,-317.19631 H 701.83302 V 157.6311 H 227.0056 Z m 244.74069,172.30576 c -11.74494,12.11322 -22.93361,26.15375 -31.89715,42.05904 -31.78018,56.392081 -99.86779,90.327373 -99.86779,90.327373 a 7.7794789,7.7794789 0 0 0 -3.56315,10.4077208 7.7794789,7.7794789 0 0 0 10.40635,3.5645394 c 0,0 71.50543,-34.4246382 106.57839,-96.6595602 32.6189,-57.880343 100.5307,-91.009603 100.5307,-91.009603 a 7.7794789,7.7794789 0 0 0 3.64601,-10.38012 7.7794789,7.7794789 0 0 0 -10.37871,-3.6474 c 0,0 -40.2198,18.99835 -75.45465,55.33801 z m 26.96673,26.96673 c -11.74495,12.11322 -22.93499,26.152376 -31.89853,42.057668 -31.78017,56.392084 -99.86777,90.327377 -99.86778,90.327369 a 7.7794789,7.7794789 0 0 0 -3.56315,10.407721 7.7794789,7.7794789 0 0 0 10.40772,3.565919 c 0,0 71.50406,-34.4260174 106.57701,-96.660939 32.6189,-57.880348 100.5307,-91.009618 100.5307,-91.009618 a 7.7794789,7.7794789 0 0 0 3.64602,-10.3801 7.7794789,7.7794789 0 0 0 -10.37873,-3.64741 c 0,0 -40.21841,18.99973 -75.45326,55.33939 z m 26.96535,26.965351 c -11.74495,12.113213 -22.93498,26.152387 -31.89853,42.057665 -31.78017,56.392084 -99.86778,90.327369 -99.86778,90.327369 a 7.7794789,7.7794789 0 0 0 -3.56315,10.407728 7.7794789,7.7794789 0 0 0 10.40772,3.565911 c 0,0 71.50407,-34.426003 106.57701,-96.660939 32.61891,-57.880339 100.53069,-91.009615 100.53069,-91.009615 a 7.7794789,7.7794789 0 0 0 3.64741,-10.37872 7.7794789,7.7794789 0 0 0 -10.3801,-3.64879 c 0,0 -40.21841,18.99974 -75.45327,55.339391 z m 26.96536,26.965354 c -11.74495,12.113213 -22.93499,26.15238 -31.89854,42.057665 -31.78017,56.392085 -99.8664,90.328748 -99.8664,90.328748 a 7.7794789,7.7794789 0 0 0 -3.56315,10.407721 7.7794789,7.7794789 0 0 0 10.40635,3.56454 c 0,0 71.50405,-34.426017 106.577,-96.660939 32.61891,-57.880339 100.5307,-91.00961 100.5307,-91.00961 a 7.7794789,7.7794789 0 0 0 3.6474,-10.37873 7.7794789,7.7794789 0 0 0 -10.3801,-3.64879 c 0,0 -40.21841,18.99974 -75.45326,55.339395 z m 26.96534,26.965348 C 567.86412,-24.914554 556.67409,-10.875387 547.71055,5.0299049 515.93037,61.421982 447.84414,95.358646 447.84414,95.358646 a 7.7794789,7.7794789 0 0 0 -3.56453,10.406354 7.7794789,7.7794789 0 0 0 10.40911,3.56729 c 0,0 71.50267,-34.427394 106.57562,-96.662323 32.61891,-57.880339 100.5307,-91.009614 100.5307,-91.009614 a 7.7794789,7.7794789 0 0 0 3.6474,-10.378722 7.7794789,7.7794789 0 0 0 -10.3801,-3.648784 c 0,0 -40.21842,18.999726 -75.45327,55.339386 z" /></clipPath></defs><g
     id="g3414"
     transform="matrix(0.88405678,0,0,0.88405678,-7.9278786,3.4692883)"
     style="stroke-width:17.5995;stroke-dasharray:none"><path
       id="rect365"
       style="fill:url(#linearGradient1051);fill-opacity:1;stroke-width:15"
       d="m 277.82529,-114.97529 c -28.33772,28.337725 -45.81969,67.531488 -45.81969,110.9591445 0,85.0958515 67.13109,153.8920155 151.53354,156.6462455 312.13499,0 313.29388,0.001 313.29388,0.001 0,0 -10e-4,-0.17012 -10e-4,-313.29387 -2.75424,-84.40245 -71.5504,-151.53354 -156.64625,-151.53354 -85.09556,0 -153.89158,67.1315 -156.64625,151.53354 -41.32831,1.34885 -78.52441,18.49767 -105.71385,45.6871 z"
       transform="matrix(1.0158162,1.0158162,-1.0158162,1.0158162,-164.64608,-169.34995)"
       clip-path="url(#clipPath3807)" /></g></svg>
