<?xml version="1.0" encoding="UTF-8" standalone="no"?>
<!-- Created with Inkscape (http://www.inkscape.org/) -->

<svg
   width="763.7348"
   height="735.10028"
   viewBox="0 0 763.73481 735.10028"
   version="1.1"
   id="svg5"
   xml:space="preserve"
   sodipodi:docname="icon-couplet.svg"
   inkscape:version="1.2.1 (0f2f062aeb, 2022-09-21, custom)"
   inkscape:export-filename="../7dd506a9/couplet-icon.png"
   inkscape:export-xdpi="96"
   inkscape:export-ydpi="96"
   xmlns:inkscape="http://www.inkscape.org/namespaces/inkscape"
   xmlns:sodipodi="http://sodipodi.sourceforge.net/DTD/sodipodi-0.dtd"
   xmlns:xlink="http://www.w3.org/1999/xlink"
   xmlns="http://www.w3.org/2000/svg"
   xmlns:svg="http://www.w3.org/2000/svg"><sodipodi:namedview
     id="namedview30"
     pagecolor="#505050"
     bordercolor="#ffffff"
     borderopacity="1"
     inkscape:showpageshadow="0"
     inkscape:pageopacity="0"
     inkscape:pagecheckerboard="1"
     inkscape:deskcolor="#505050"
     showgrid="false"
     inkscape:zoom="1.0638004"
     inkscape:cx="374.13033"
     inkscape:cy="367.55015"
     inkscape:window-width="1920"
     inkscape:window-height="999"
     inkscape:window-x="0"
     inkscape:window-y="0"
     inkscape:window-maximized="1"
     inkscape:current-layer="g3414" /><defs
     id="defs2"><inkscape:path-effect
       effect="powerclip"
       id="path-effect3811"
       is_visible="true"
       lpeversion="1"
       inverse="true"
       flatten="false"
       hide_clip="false"
       message="Use fill-rule evenodd on &lt;b&gt;fill and stroke&lt;/b&gt; dialog if no flatten result after convert clip to paths." /><linearGradient
       id="linearGradient1246"><stop
         style="stop-color:#cb85ff;stop-opacity:1;"
         offset="0"
         id="stop1242" /><stop
         style="stop-color:#7275e8;stop-opacity:1;"
         offset="1"
         id="stop1244" /></linearGradient><linearGradient
       xlink:href="#linearGradient1246"
       id="linearGradient2005"
       x1="769.47064"
       y1="368.85126"
       x2="1263.1497"
       y2="368.85126"
       gradientUnits="userSpaceOnUse"
       gradientTransform="matrix(1.1694341,0,0,1.1867512,-155.36015,-74.989996)" /><linearGradient
       xlink:href="#linearGradient1246"
       id="linearGradient8294"
       gradientUnits="userSpaceOnUse"
       gradientTransform="matrix(1.1694341,0,0,1.1867512,-155.36015,-74.989996)"
       x1="769.47064"
       y1="368.85126"
       x2="1263.1497"
       y2="368.85126" /><linearGradient
       xlink:href="#linearGradient1246"
       id="linearGradient8296"
       gradientUnits="userSpaceOnUse"
       gradientTransform="matrix(0.82560841,0.07320636,-0.05276,0.89081468,159.05686,-88.89526)"
       x1="982.86163"
       y1="259.90405"
       x2="1240.0475"
       y2="527.42303" /><linearGradient
       xlink:href="#linearGradient1246"
       id="linearGradient8304"
       x1="735.69562"
       y1="362.729"
       x2="1330.5992"
       y2="362.729"
       gradientUnits="userSpaceOnUse" /><mask
       maskUnits="userSpaceOnUse"
       id="mask-powermask-path-effect8490"><path
         id="mask-powermask-path-effect8490_box"
         style="fill:#ffffff;fill-opacity:1"
         d="m 734.6956,89.507633 h 596.9037 V 635.93582 H 734.6956 Z" /><g
         id="g8488"
         transform="matrix(0.7769162,0,0,1.0538705,737.83815,5.3601703)"
         style=""><path
           id="path8478"
           style="stroke-width:9.02141"
           d="m 188.93607,207.33389 c 128.87279,-8.79515 256.79148,32.11666 384.00936,24.29899 1.7819,-0.1095 3.19795,0.81117 3.17568,2.09392 3.1e-4,-0.018 0.0895,7.59696 0.0898,7.57892 -0.0217,1.30118 -1.47391,2.49091 -3.257,2.63674 C 444.87623,254.417 316.53938,211.09823 188.4617,221.57277 c -1.7984,0.14822 -3.19973,-1.61058 -3.12858,-3.99738 0.0553,-1.85428 0.11567,-3.72341 0.18155,-5.60763 0.0848,-2.42586 1.61542,-4.51062 3.42137,-4.63387 z" /><path
           id="path8480"
           style="stroke-width:9.02141"
           d="m 187.99786,257.95051 c 127.08486,-14.05525 257.38614,28.98759 384.65362,12.9029 1.7826,-0.22529 3.20453,0.76479 3.18993,2.25672 1.6e-4,-0.0158 -0.0329,3.52757 -0.0328,3.51173 -0.0135,1.51807 -1.45705,2.96937 -3.23868,3.21601 -127.1981,17.60879 -258.01686,-24.39651 -384.54841,-9.61916 -1.77122,0.20685 -3.20735,-1.24348 -3.21591,-3.29568 -0.007,-1.59543 -0.0119,-3.20313 -0.0154,-4.82331 -0.005,-2.08458 1.42654,-3.95223 3.20763,-4.14921 z" /><path
           id="path8482"
           style="stroke-width:9.02141"
           d="m 188.19116,301.69407 c 125.01384,-15.27051 257.74924,25.71193 384.74965,5.40021 1.77886,-0.2845 3.20778,0.87999 3.20679,2.65496 10e-6,-0.0132 -1.9e-4,4.16807 -1.9e-4,4.18125 8.3e-4,1.80885 -1.4276,3.53542 -3.20598,3.82602 -126.96591,20.74706 -260.25814,-20.28725 -384.76249,-5.38468 -1.74296,0.20862 -3.13989,-1.03068 -3.13752,-2.81209 0.002,-1.38632 0.001,-2.78223 -8.7e-4,-4.18809 -0.003,-1.8071 1.39855,-3.46356 3.15061,-3.67758 z" /><path
           id="path8484"
           style="stroke-width:9.02141"
           d="m 187.5246,339.99347 c 123.36652,-12.36798 257.95786,25.98117 385.08133,5.55539 1.78036,-0.28607 3.22679,1.15796 3.24689,3.29091 -1.6e-4,-0.0168 0.0502,5.04039 0.05,5.02363 0.0228,2.17523 -1.3904,4.18863 -3.174,4.46536 -127.31218,19.75293 -262.68801,-19.75694 -385.77719,-8.86639 -1.72408,0.15254 -3.01635,-0.97137 -2.91402,-2.5489 0.0796,-1.22704 0.15333,-2.4611 0.22158,-3.70246 0.0876,-1.59361 1.53687,-3.04425 3.26538,-3.21754 z" /><path
           id="path8486"
           style="stroke-width:9.02141"
           d="m 187.33769,374.55777 c 122.8497,-5.27467 257.60668,38.70302 385.95014,22.34911 1.79682,-0.22896 3.28062,1.60037 3.33088,4.16679 -3.6e-4,-0.0184 0.12184,6.05783 0.12148,6.03946 0.054,2.61649 -1.35068,4.92857 -3.15783,5.13254 -128.94369,14.55341 -264.51129,-29.86351 -387.50411,-27.1952 -1.72403,0.0374 -2.85486,-1.07609 -2.56609,-2.50831 0.22538,-1.11783 0.0515,-4.08984 0.25849,-5.21674 0.26529,-1.44441 1.84714,-2.6938 3.56704,-2.76765 z" /></g></mask><filter
       id="mask-powermask-path-effect8490_inverse"
       style="color-interpolation-filters:sRGB"
       height="100"
       width="100"
       x="-50"
       y="-50"><feColorMatrix
         id="mask-powermask-path-effect8490_primitive1"
         values="1"
         type="saturate"
         result="fbSourceGraphic" /><feColorMatrix
         id="mask-powermask-path-effect8490_primitive2"
         values="-1 0 0 0 1 0 -1 0 0 1 0 0 -1 0 1 0 0 0 1 0 "
         in="fbSourceGraphic" /></filter><linearGradient
       inkscape:collect="always"
       xlink:href="#linearGradient1246"
       id="linearGradient1051"
       x1="232.0056"
       y1="-79.782608"
       x2="768.09338"
       y2="-57.543762"
       gradientUnits="userSpaceOnUse" /><filter
       id="mask-powermask-path-effect3430_inverse"
       inkscape:label="filtermask-powermask-path-effect3430"
       style="color-interpolation-filters:sRGB"
       height="100"
       width="100"
       x="-50"
       y="-50"><feColorMatrix
         id="mask-powermask-path-effect3430_primitive1"
         values="1"
         type="saturate"
         result="fbSourceGraphic" /><feColorMatrix
         id="mask-powermask-path-effect3430_primitive2"
         values="-1 0 0 0 1 0 -1 0 0 1 0 0 -1 0 1 0 0 0 1 0 "
         in="fbSourceGraphic" /></filter><filter
       id="mask-powermask-path-effect3450_inverse"
       inkscape:label="filtermask-powermask-path-effect3450"
       style="color-interpolation-filters:sRGB"
       height="100"
       width="100"
       x="-50"
       y="-50"><feColorMatrix
         id="mask-powermask-path-effect3450_primitive1"
         values="1"
         type="saturate"
         result="fbSourceGraphic" /><feColorMatrix
         id="mask-powermask-path-effect3450_primitive2"
         values="-1 0 0 0 1 0 -1 0 0 1 0 0 -1 0 1 0 0 0 1 0 "
         in="fbSourceGraphic" /></filter><filter
       id="mask-powermask-path-effect3470_inverse"
       inkscape:label="filtermask-powermask-path-effect3470"
       style="color-interpolation-filters:sRGB"
       height="100"
       width="100"
       x="-50"
       y="-50"><feColorMatrix
         id="mask-powermask-path-effect3470_primitive1"
         values="1"
         type="saturate"
         result="fbSourceGraphic" /><feColorMatrix
         id="mask-powermask-path-effect3470_primitive2"
         values="-1 0 0 0 1 0 -1 0 0 1 0 0 -1 0 1 0 0 0 1 0 "
         in="fbSourceGraphic" /></filter><filter
       id="mask-powermask-path-effect3569_inverse"
       inkscape:label="filtermask-powermask-path-effect3569"
       style="color-interpolation-filters:sRGB"
       height="100"
       width="100"
       x="-50"
       y="-50"><feColorMatrix
         id="mask-powermask-path-effect3569_primitive1"
         values="1"
         type="saturate"
         result="fbSourceGraphic" /><feColorMatrix
         id="mask-powermask-path-effect3569_primitive2"
         values="-1 0 0 0 1 0 -1 0 0 1 0 0 -1 0 1 0 0 0 1 0 "
         in="fbSourceGraphic" /></filter><filter
       id="mask-powermask-path-effect3668_inverse"
       inkscape:label="filtermask-powermask-path-effect3668"
       style="color-interpolation-filters:sRGB"
       height="100"
       width="100"
       x="-50"
       y="-50"><feColorMatrix
         id="mask-powermask-path-effect3668_primitive1"
         values="1"
         type="saturate"
         result="fbSourceGraphic" /><feColorMatrix
         id="mask-powermask-path-effect3668_primitive2"
         values="-1 0 0 0 1 0 -1 0 0 1 0 0 -1 0 1 0 0 0 1 0 "
         in="fbSourceGraphic" /></filter><filter
       id="mask-powermask-path-effect3730_inverse"
       inkscape:label="filtermask-powermask-path-effect3730"
       style="color-interpolation-filters:sRGB"
       height="100"
       width="100"
       x="-50"
       y="-50"><feColorMatrix
         id="mask-powermask-path-effect3730_primitive1"
         values="1"
         type="saturate"
         result="fbSourceGraphic" /><feColorMatrix
         id="mask-powermask-path-effect3730_primitive2"
         values="-1 0 0 0 1 0 -1 0 0 1 0 0 -1 0 1 0 0 0 1 0 "
         in="fbSourceGraphic" /></filter><filter
       id="mask-powermask-path-effect3781_inverse"
       inkscape:label="filtermask-powermask-path-effect3781"
       style="color-interpolation-filters:sRGB"
       height="100"
       width="100"
       x="-50"
       y="-50"><feColorMatrix
         id="mask-powermask-path-effect3781_primitive1"
         values="1"
         type="saturate"
         result="fbSourceGraphic" /><feColorMatrix
         id="mask-powermask-path-effect3781_primitive2"
         values="-1 0 0 0 1 0 -1 0 0 1 0 0 -1 0 1 0 0 0 1 0 "
         in="fbSourceGraphic" /></filter><clipPath
       clipPathUnits="userSpaceOnUse"
       id="clipPath3807"><path
         id="path3809"
         style="color:#000000;display:none;fill:#ffffff;stroke-width:15.559;stroke-linecap:round;stroke-miterlimit:4.7;stroke-dasharray:none;-inkscape-stroke:none"
         d="m 471.74629,-144.89055 c -11.74494,12.11322 -22.93361,26.15375 -31.89715,42.05904 -31.78018,56.392081 -99.86779,90.327373 -99.86779,90.327373 a 7.7794789,7.7794789 0 0 0 -3.56315,10.4077208 7.7794789,7.7794789 0 0 0 10.40635,3.5645394 c 0,0 71.50543,-34.4246382 106.57839,-96.6595602 32.6189,-57.880343 100.5307,-91.009603 100.5307,-91.009603 a 7.7794789,7.7794789 0 0 0 3.64601,-10.38012 7.7794789,7.7794789 0 0 0 -10.37871,-3.6474 c 0,0 -40.2198,18.99835 -75.45465,55.33801 z m 26.96673,26.96673 c -11.74495,12.11322 -22.93499,26.152376 -31.89853,42.057668 -31.78017,56.392084 -99.86777,90.327377 -99.86778,90.327369 a 7.7794789,7.7794789 0 0 0 -3.56315,10.407721 7.7794789,7.7794789 0 0 0 10.40772,3.565919 c 0,0 71.50406,-34.4260174 106.57701,-96.660939 32.6189,-57.880348 100.5307,-91.009618 100.5307,-91.009618 a 7.7794789,7.7794789 0 0 0 3.64602,-10.3801 7.7794789,7.7794789 0 0 0 -10.37873,-3.64741 c 0,0 -40.21841,18.99973 -75.45326,55.33939 z m 26.96535,26.965351 c -11.74495,12.113213 -22.93498,26.152387 -31.89853,42.057665 -31.78017,56.392084 -99.86778,90.327369 -99.86778,90.327369 a 7.7794789,7.7794789 0 0 0 -3.56315,10.407728 7.7794789,7.7794789 0 0 0 10.40772,3.565911 c 0,0 71.50407,-34.426003 106.57701,-96.660939 32.61891,-57.880339 100.53069,-91.009615 100.53069,-91.009615 a 7.7794789,7.7794789 0 0 0 3.64741,-10.37872 7.7794789,7.7794789 0 0 0 -10.3801,-3.64879 c 0,0 -40.21841,18.99974 -75.45327,55.339391 z m 26.96536,26.965354 c -11.74495,12.113213 -22.93499,26.15238 -31.89854,42.057665 -31.78017,56.392085 -99.8664,90.328748 -99.8664,90.328748 a 7.7794789,7.7794789 0 0 0 -3.56315,10.407721 7.7794789,7.7794789 0 0 0 10.40635,3.56454 c 0,0 71.50405,-34.426017 106.577,-96.660939 32.61891,-57.880339 100.5307,-91.00961 100.5307,-91.00961 a 7.7794789,7.7794789 0 0 0 3.6474,-10.37873 7.7794789,7.7794789 0 0 0 -10.3801,-3.64879 c 0,0 -40.21841,18.99974 -75.45326,55.339395 z m 26.96534,26.965348 C 567.86412,-24.914554 556.67409,-10.875387 547.71055,5.0299049 515.93037,61.421982 447.84414,95.358646 447.84414,95.358646 a 7.7794789,7.7794789 0 0 0 -3.56453,10.406354 7.7794789,7.7794789 0 0 0 10.40911,3.56729 c 0,0 71.50267,-34.427394 106.57562,-96.662323 32.61891,-57.880339 100.5307,-91.009614 100.5307,-91.009614 a 7.7794789,7.7794789 0 0 0 3.6474,-10.378722 7.7794789,7.7794789 0 0 0 -10.3801,-3.648784 c 0,0 -40.21842,18.999726 -75.45327,55.339386 z" /><path
         id="lpe_path-effect3811"
         style="color:#000000;fill:#ffffff;stroke-width:15.559;stroke-linecap:round;stroke-miterlimit:4.7;stroke-dasharray:none;-inkscape-stroke:none"
         class="powerclip"
         d="M 227.0056,-317.19631 H 701.83302 V 157.6311 H 227.0056 Z m 244.74069,172.30576 c -11.74494,12.11322 -22.93361,26.15375 -31.89715,42.05904 -31.78018,56.392081 -99.86779,90.327373 -99.86779,90.327373 a 7.7794789,7.7794789 0 0 0 -3.56315,10.4077208 7.7794789,7.7794789 0 0 0 10.40635,3.5645394 c 0,0 71.50543,-34.4246382 106.57839,-96.6595602 32.6189,-57.880343 100.5307,-91.009603 100.5307,-91.009603 a 7.7794789,7.7794789 0 0 0 3.64601,-10.38012 7.7794789,7.7794789 0 0 0 -10.37871,-3.6474 c 0,0 -40.2198,18.99835 -75.45465,55.33801 z m 26.96673,26.96673 c -11.74495,12.11322 -22.93499,26.152376 -31.89853,42.057668 -31.78017,56.392084 -99.86777,90.327377 -99.86778,90.327369 a 7.7794789,7.7794789 0 0 0 -3.56315,10.407721 7.7794789,7.7794789 0 0 0 10.40772,3.565919 c 0,0 71.50406,-34.4260174 106.57701,-96.660939 32.6189,-57.880348 100.5307,-91.009618 100.5307,-91.009618 a 7.7794789,7.7794789 0 0 0 3.64602,-10.3801 7.7794789,7.7794789 0 0 0 -10.37873,-3.64741 c 0,0 -40.21841,18.99973 -75.45326,55.33939 z m 26.96535,26.965351 c -11.74495,12.113213 -22.93498,26.152387 -31.89853,42.057665 -31.78017,56.392084 -99.86778,90.327369 -99.86778,90.327369 a 7.7794789,7.7794789 0 0 0 -3.56315,10.407728 7.7794789,7.7794789 0 0 0 10.40772,3.565911 c 0,0 71.50407,-34.426003 106.57701,-96.660939 32.61891,-57.880339 100.53069,-91.009615 100.53069,-91.009615 a 7.7794789,7.7794789 0 0 0 3.64741,-10.37872 7.7794789,7.7794789 0 0 0 -10.3801,-3.64879 c 0,0 -40.21841,18.99974 -75.45327,55.339391 z m 26.96536,26.965354 c -11.74495,12.113213 -22.93499,26.15238 -31.89854,42.057665 -31.78017,56.392085 -99.8664,90.328748 -99.8664,90.328748 a 7.7794789,7.7794789 0 0 0 -3.56315,10.407721 7.7794789,7.7794789 0 0 0 10.40635,3.56454 c 0,0 71.50405,-34.426017 106.577,-96.660939 32.61891,-57.880339 100.5307,-91.00961 100.5307,-91.00961 a 7.7794789,7.7794789 0 0 0 3.6474,-10.37873 7.7794789,7.7794789 0 0 0 -10.3801,-3.64879 c 0,0 -40.21841,18.99974 -75.45326,55.339395 z m 26.96534,26.965348 C 567.86412,-24.914554 556.67409,-10.875387 547.71055,5.0299049 515.93037,61.421982 447.84414,95.358646 447.84414,95.358646 a 7.7794789,7.7794789 0 0 0 -3.56453,10.406354 7.7794789,7.7794789 0 0 0 10.40911,3.56729 c 0,0 71.50267,-34.427394 106.57562,-96.662323 32.61891,-57.880339 100.5307,-91.009614 100.5307,-91.009614 a 7.7794789,7.7794789 0 0 0 3.6474,-10.378722 7.7794789,7.7794789 0 0 0 -10.3801,-3.648784 c 0,0 -40.21842,18.999726 -75.45327,55.339386 z" /></clipPath></defs><g
     id="layer2"
     style="display:none"><g
       id="g8292"
       transform="translate(-12.222823,4.8967391)"><path
         id="path8288"
         style="fill:none;fill-opacity:1;stroke:url(#linearGradient8294);stroke-width:17.671;stroke-dasharray:none"
         d="m 907.56809,99.358128 c -41.64948,-8e-6 -83.2981,16.191392 -115.2121,48.577992 -63.82798,64.77313 -63.82798,169.06669 0,233.83984 l 10.36387,10.51734 c 228.70424,233.98881 230.42764,233.83984 230.42764,233.83984 0,0 2.8592,-1.64165 230.4245,-233.83937 l 10.3669,-10.51782 c 63.828,-64.77316 63.828,-169.06669 0,-233.83983 -63.8278,-64.773149 -166.5996,-64.773158 -230.4276,0 l -10.3643,10.52033 -10.3672,-10.52082 C 990.86576,115.54906 949.21706,99.357642 907.5676,99.35766 Z" /><path
         style="fill:url(#linearGradient8296);fill-opacity:1;stroke:none;stroke-width:0.859841px;stroke-linecap:butt;stroke-linejoin:miter;stroke-opacity:1"
         d="m 1122.6529,196.70612 -125.57321,14.91261 c 0,0 -9.277,1.08518 -10.0674,12.56404 -0.7902,11.47889 -8.9716,158.03038 -8.9716,158.03038 0,0 1.015,13.40554 -8.8127,11.97694 -17.49294,-2.5429 -61.71162,2.89896 -52.42054,45.17829 9.2911,42.2793 63.57284,11.06347 63.57284,11.06347 0,0 10.439,-2.26947 11.9177,-55.60997 1.4793,-53.34048 6.1875,-111.51208 6.1875,-111.51208 0,0 0.774,-7.66228 8.79331,-7.0437 8.0191,0.61859 101.3305,-10.42541 101.3305,-10.42541 0,0 8.0002,-4.90782 6.3314,10.097 -1.6691,15.00483 -7.8404,106.2735 -7.8404,106.2735 0,0 -1.1477,8.82473 -10.7425,7.96832 -16.7219,-1.49248 -48.6125,5.06059 -50.534,26.34797 -1.9215,21.28741 8.93,37.06415 25.0146,41.44696 16.0844,4.38278 33.932,-8.70567 33.932,-8.70567 0,0 15.9673,-13.17244 17.887,-66.03341 1.9198,-52.86098 10.6137,-175.3845 10.6137,-175.3845 0,0 1.3761,-15.23763 -10.6186,-11.1448 z"
         id="path8290" /></g></g><g
     id="g3414"
     transform="matrix(0.88405678,0,0,0.88405678,41.650696,53.073174)"
     style="stroke-width:17.5995;stroke-dasharray:none"><path
       id="rect365"
       style="fill:url(#linearGradient1051);fill-opacity:1;stroke-width:15"
       d="m 277.82529,-114.97529 c -28.33772,28.337725 -45.81969,67.531488 -45.81969,110.9591445 0,85.0958515 67.13109,153.8920155 151.53354,156.6462455 312.13499,0 313.29388,0.001 313.29388,0.001 0,0 -10e-4,-0.17012 -10e-4,-313.29387 -2.75424,-84.40245 -71.5504,-151.53354 -156.64625,-151.53354 -85.09556,0 -153.89158,67.1315 -156.64625,151.53354 -41.32831,1.34885 -78.52441,18.49767 -105.71385,45.6871 z"
       transform="matrix(1.0158162,1.0158162,-1.0158162,1.0158162,-164.64608,-169.34995)"
       sodipodi:nodetypes="sscccscs"
       clip-path="url(#clipPath3807)"
       inkscape:path-effect="#path-effect3811"
       inkscape:original-d="m 277.82529,-114.97529 c -28.33772,28.337725 -45.81969,67.531488 -45.81969,110.9591445 0,85.0958515 67.13109,153.8920155 151.53354,156.6462455 312.13499,0 313.29388,0.001 313.29388,0.001 0,0 -10e-4,-0.17012 -10e-4,-313.29387 -2.75424,-84.40245 -71.5504,-151.53354 -156.64625,-151.53354 -85.09556,0 -153.89158,67.1315 -156.64625,151.53354 -41.32831,1.34885 -78.52441,18.49767 -105.71385,45.6871 z"
       inkscape:export-filename="../598b89b4/icon.png"
       inkscape:export-xdpi="96"
       inkscape:export-ydpi="96" /></g></svg>
